<svg width="30" height="30" viewBox="0 0 30 30" fill="none" xmlns="http://www.w3.org/2000/svg">
<path d="M15 3.72009C8.125 3.72009 2.5 9.34509 2.5 16.2201C2.5 19.4701 3.75 22.5951 6.125 24.9701L6.25 25.0951C7.75 26.4701 9.5 27.5951 11.375 28.2201C12.625 28.5951 13.875 28.7201 15.125 28.7201C16.375 28.7201 17.625 28.4701 18.875 28.2201C20.75 27.5951 22.5 26.5951 24 25.2201L24.125 25.0951C26.375 22.7201 27.75 19.5951 27.75 16.3451C27.5 9.34509 21.875 3.72009 15 3.72009ZM15 6.22009C20.5 6.22009 25 10.7201 25 16.2201C25 18.3451 24.375 20.3451 23.125 21.9701C22.125 20.3451 20.625 19.2201 18.875 18.4701C19.75 17.4701 20.375 16.2201 20.375 14.7201C20.375 11.7201 18 9.34509 15 9.34509C12 9.34509 9.625 11.7201 9.625 14.7201C9.625 16.2201 10.25 17.4701 11.125 18.4701C9.375 19.2201 8 20.4701 6.875 21.9701C5.625 20.3451 5 18.2201 5 16.2201C5 10.7201 9.5 6.22009 15 6.22009Z" fill="white"/>
</svg>
