<svg width="22" height="40" viewBox="0 0 22 40" fill="none" xmlns="http://www.w3.org/2000/svg">
<path d="M15.5834 0.989258C13.0279 0.989258 10.5771 2.00442 8.77002 3.8114C6.96314 5.6184 5.94794 8.0692 5.94794 10.6247V15.9893H0.791687C0.532812 15.9893 0.322937 16.199 0.322937 16.458V23.5413C0.322937 23.8003 0.532812 24.0101 0.791687 24.0101H5.94794V38.5413C5.94794 38.8003 6.15781 39.0101 6.41669 39.0101H13.5C13.759 39.0101 13.9688 38.8003 13.9688 38.5413V24.0101H19.1706C19.3859 24.0101 19.5734 23.8636 19.6254 23.6551L21.3963 16.5718C21.4702 16.2759 21.2465 15.9893 20.9415 15.9893H13.9688V10.6247C13.9688 10.1965 14.139 9.78578 14.4417 9.48299C14.7444 9.18019 15.1552 9.01009 15.5834 9.01009H21C21.259 9.01009 21.4688 8.80022 21.4688 8.54134V1.45801C21.4688 1.19913 21.259 0.989258 21 0.989258H15.5834Z" fill="#2B5376"/>
</svg>
