<svg width="50" height="50" viewBox="0 0 50 50" fill="none" xmlns="http://www.w3.org/2000/svg">
<path d="M38.4104 43.6184H11.5896C10.2083 43.6184 8.88349 43.0696 7.90674 42.0929C6.92999 41.1161 6.38126 39.7914 6.38126 38.41V11.5892C6.38126 10.2079 6.92999 8.8831 7.90674 7.90634C8.88349 6.92959 10.2083 6.38086 11.5896 6.38086H38.4104C39.7918 6.38086 41.1165 6.92959 42.0933 7.90634C43.07 8.8831 43.6188 10.2079 43.6188 11.5892V38.41C43.6188 39.7914 43.07 41.1161 42.0933 42.0929C41.1165 43.0696 39.7918 43.6184 38.4104 43.6184ZM11.5896 8.46419C10.7608 8.46419 9.96593 8.79343 9.37988 9.37948C8.79383 9.96554 8.46459 10.7604 8.46459 11.5892V38.41C8.46459 39.2388 8.79383 40.0337 9.37988 40.6197C9.96593 41.2058 10.7608 41.535 11.5896 41.535H38.4104C39.2392 41.535 40.0341 41.2058 40.6201 40.6197C41.2062 40.0337 41.5354 39.2388 41.5354 38.41V11.5892C41.5354 10.7604 41.2062 9.96554 40.6201 9.37948C40.0341 8.79343 39.2392 8.46419 38.4104 8.46419H11.5896Z" fill="#2B5376"/>
<path d="M25 34.5706C23.107 34.5686 21.2571 34.0053 19.6842 32.9521C18.1113 31.8989 16.8859 30.4029 16.163 28.6534C15.4401 26.9039 15.2522 24.9793 15.6229 23.123C15.9936 21.2667 16.9063 19.5619 18.2458 18.2242C19.5852 16.8866 21.2911 15.976 23.1479 15.6077C25.0048 15.2394 26.9291 15.4299 28.6777 16.1551C30.4262 16.8803 31.9206 18.1076 32.9717 19.6819C34.0229 21.2562 34.5837 23.1068 34.5833 24.9998C34.58 27.5393 33.5689 29.9736 31.772 31.7682C29.9752 33.5627 27.5395 34.5706 25 34.5706ZM25 17.4998C23.5196 17.5019 22.073 17.9426 20.8429 18.7664C19.6129 19.5901 18.6545 20.7599 18.089 22.1281C17.5234 23.4962 17.3759 25.0012 17.6653 26.4531C17.9546 27.9049 18.6677 29.2385 19.7145 30.2853C20.7613 31.3321 22.0949 32.0452 23.5467 32.3345C24.9986 32.6239 26.5036 32.4764 27.8718 31.9108C29.2399 31.3453 30.4097 30.3869 31.2334 29.1569C32.0572 27.9268 32.4979 26.4802 32.5 24.9998C32.5 23.0107 31.7098 21.103 30.3033 19.6965C28.8968 18.29 26.9891 17.4998 25 17.4998Z" fill="#2B5376"/>
<path d="M35.8333 16.4684C37.0702 16.4684 38.0729 15.4657 38.0729 14.2288C38.0729 12.992 37.0702 11.9893 35.8333 11.9893C34.5964 11.9893 33.5938 12.992 33.5938 14.2288C33.5938 15.4657 34.5964 16.4684 35.8333 16.4684Z" fill="#2B5376"/>
</svg>
