<svg width="42" height="35" viewBox="0 0 42 35" fill="none" xmlns="http://www.w3.org/2000/svg">
<path d="M41.4369 4.97309C41.5577 4.80482 41.3794 4.58755 41.1863 4.6624C39.814 5.19434 38.3796 5.55324 36.9167 5.73009C38.5456 4.75692 39.8027 3.27551 40.4998 1.52161C40.5706 1.34294 40.3756 1.1834 40.2073 1.27634C38.6933 2.11246 37.0604 2.71453 35.3644 3.06128C35.2933 3.0758 35.2202 3.05163 35.1704 2.99903C33.8975 1.65596 32.2219 0.761714 30.3954 0.452694C28.5304 0.137194 26.6135 0.44959 24.9454 1.3409C23.2771 2.23221 21.9519 3.65203 21.1775 5.37767C20.4413 7.01842 20.2427 8.8474 20.6058 10.6039C20.634 10.7402 20.5273 10.8689 20.3883 10.8602C17.0883 10.6553 13.8639 9.77751 10.9139 8.2798C7.97133 6.7859 5.36565 4.70765 3.2555 2.17321C3.16185 2.06074 2.98435 2.07528 2.9161 2.20478C2.25952 3.45074 1.91573 4.83949 1.91667 6.25092C1.914 7.65588 2.25877 9.03972 2.92031 10.2792C3.58185 11.5187 4.53962 12.5753 5.70833 13.3551C4.4689 13.3213 3.25365 13.0149 2.14844 12.4594C2.006 12.3878 1.83515 12.4898 1.84256 12.649C1.92875 14.5015 2.60885 16.3613 3.78606 17.7884C5.03881 19.3068 6.7776 20.3459 8.70833 20.7301C7.9651 20.9563 7.19348 21.0755 6.41667 21.0843C5.99388 21.0793 5.5719 21.0482 5.15319 20.9909C4.99794 20.9697 4.87119 21.1172 4.92552 21.264C5.5014 22.8213 6.51873 24.1803 7.8564 25.1722C9.2865 26.2326 11.0116 26.8209 12.7917 26.8551C9.78583 29.2203 6.07475 30.5111 2.25 30.5218C1.85698 30.523 1.46415 30.5103 1.07225 30.4836C0.851396 30.4686 0.749833 30.7628 0.940187 30.8757C4.66679 33.0874 8.92623 34.2561 13.2708 34.2509C16.4785 34.2843 19.6606 33.678 22.6315 32.4678C25.6023 31.2574 28.3021 29.4674 30.5733 27.202C32.8446 24.9366 34.6417 22.2413 35.8596 19.2736C37.0773 16.3059 37.6917 13.1253 37.6667 9.91759V8.91795C37.6667 8.85217 37.6977 8.79032 37.7502 8.75067C39.1633 7.68371 40.406 6.4099 41.4369 4.97309Z" fill="#2B5376"/>
</svg>
