<svg width="35" height="36" viewBox="0 0 35 36" fill="none" xmlns="http://www.w3.org/2000/svg">
<path d="M2.41711 14.5426C6.40961 23.2382 13.5138 30.1517 22.3461 33.8996L23.7619 34.5305C27.0013 35.9738 30.809 34.8774 32.7846 31.9326L34.6348 29.1749C35.2365 28.2782 35.0534 27.0705 34.2129 26.3926L27.9381 21.3305C27.0167 20.5869 25.6615 20.7603 24.9563 21.7115L23.0152 24.3309C18.0344 21.8738 13.9904 17.8301 11.5336 12.8492L14.1527 10.9081C15.1042 10.2031 15.2773 8.84781 14.5338 7.92619L9.47165 1.65131C8.79384 0.811145 7.58654 0.627875 6.68994 1.22906L3.91319 3.09094C0.949981 5.07781 -0.140394 8.91708 1.33613 12.1649L2.41548 14.5391L2.41711 14.5426Z" fill="#2B5376"/>
</svg>
