<svg width="50" height="50" viewBox="0 0 50 50" fill="none" xmlns="http://www.w3.org/2000/svg">
<path d="M15.1858 10.2246C21.7163 9.65692 28.2838 9.6569 34.8142 10.2246L37.9606 10.4981C40.055 10.6802 41.849 11.9295 42.7786 13.7165C42.8973 13.9451 42.8081 14.2219 42.5892 14.3576L29.535 22.4387C26.7354 24.1719 23.205 24.2081 20.3703 22.5331L7.22895 14.7678C7.01664 14.6423 6.91918 14.384 7.01487 14.1568C7.8652 12.1368 9.77693 10.6948 12.0395 10.4981L15.1858 10.2246Z" fill="#2B5376"/>
<path d="M7.00419 18.2645C6.67925 18.0725 6.26467 18.2791 6.22679 18.6546C5.69819 23.8956 5.82612 29.186 6.6106 34.4029C7.02419 37.1531 9.26879 39.2616 12.0395 39.5025L15.1858 39.776C21.7163 40.3437 28.2838 40.3437 34.8142 39.776L37.9606 39.5025C40.7313 39.2616 42.9759 37.1531 43.3894 34.4029C44.1969 29.0341 44.3088 23.587 43.7254 18.1966C43.6844 17.8184 43.2629 17.6156 42.9394 17.8158L31.18 25.0956C27.3921 27.4404 22.6159 27.4895 18.7805 25.2233L7.00419 18.2645Z" fill="#2B5376"/>
</svg>
