<svg width="20" height="20" viewBox="0 0 20 20" fill="none" xmlns="http://www.w3.org/2000/svg">
<rect width="20" height="20" rx="2" fill="#EA4335"/>
<path d="M3.42041 13V7.90909H5.61785C5.99569 7.90909 6.32631 7.98366 6.60969 8.13281C6.89307 8.28196 7.11347 8.4916 7.27091 8.76172C7.42834 9.03184 7.50706 9.34754 7.50706 9.70881C7.50706 10.0734 7.42586 10.3891 7.26345 10.6559C7.1027 10.9227 6.87649 11.1282 6.58483 11.2724C6.29482 11.4165 5.95592 11.4886 5.56814 11.4886H4.25564V10.4148H5.28973C5.45213 10.4148 5.59051 10.3866 5.70486 10.3303C5.82086 10.2723 5.90952 10.1902 5.97084 10.0842C6.03381 9.9781 6.0653 9.85298 6.0653 9.70881C6.0653 9.56297 6.03381 9.43868 5.97084 9.33594C5.90952 9.23153 5.82086 9.15199 5.70486 9.0973C5.59051 9.04096 5.45213 9.01278 5.28973 9.01278H4.80251V13H3.42041ZM9.97297 13H8.01416V7.90909H9.95308C10.4768 7.90909 10.9292 8.01101 11.3103 8.21484C11.6931 8.41702 11.9881 8.70869 12.1953 9.08984C12.4041 9.46934 12.5085 9.92424 12.5085 10.4545C12.5085 10.9848 12.4049 11.4406 12.1978 11.8217C11.9906 12.2012 11.6973 12.4929 11.3178 12.6967C10.9383 12.8989 10.49 13 9.97297 13ZM9.39626 11.8267H9.92325C10.1751 11.8267 10.3898 11.7861 10.5671 11.7049C10.746 11.6237 10.8819 11.4837 10.9747 11.2848C11.0692 11.0859 11.1164 10.8092 11.1164 10.4545C11.1164 10.0999 11.0684 9.82315 10.9723 9.62429C10.8778 9.42543 10.7386 9.28539 10.5546 9.20419C10.3724 9.12299 10.1486 9.08239 9.88348 9.08239H9.39626V11.8267ZM13.1479 13V7.90909H16.7275V9.02273H14.5301V9.89773H16.5087V11.0114H14.5301V13H13.1479Z" fill="white"/>
</svg>
